<?xml version="1.0" encoding="UTF-8" standalone="no"?>
<svg
   xmlns:dc="http://purl.org/dc/elements/1.1/"
   xmlns:cc="http://creativecommons.org/ns#"
   xmlns:rdf="http://www.w3.org/1999/02/22-rdf-syntax-ns#"
   xmlns:svg="http://www.w3.org/2000/svg"
   xmlns="http://www.w3.org/2000/svg"
   id="svg2451"
   viewBox="0, 0, 128, 128"
   height="128"
   width="128"
   y="0px"
   x="0px"
   version="1.1">
  <metadata
     id="metadata2455">
    <rdf:RDF>
      <cc:Work
         rdf:about="">
        <dc:format>image/svg+xml</dc:format>
        <dc:type
           rdf:resource="http://purl.org/dc/dcmitype/StillImage" />
        <dc:title></dc:title>
      </cc:Work>
    </rdf:RDF>
  </metadata>
  <g
     transform="matrix(1.2705,0,0,1.2705,-28.882197,-27.900779)"
     id="Background">
    <rect
       style="fill:#000000;fill-opacity:0"
       id="rect2434"
       height="128"
       width="128"
       y="0"
       x="0" />
  </g>
  <g
     id="g2447">
    <g
       style="fill:#ebeded;fill-opacity:1"
       id="g3681"
       transform="matrix(0.2025,0,0,0.2025,11.313137,17.859557)" />
    <g
       style="fill:#ebeded;fill-opacity:1"
       id="g3683"
       transform="matrix(0.2025,0,0,0.2025,11.313137,17.859557)" />
    <g
       style="fill:#ebeded;fill-opacity:1"
       id="g3685"
       transform="matrix(0.2025,0,0,0.2025,11.313137,17.859557)" />
    <g
       style="fill:#ebeded;fill-opacity:1"
       id="g3687"
       transform="matrix(0.2025,0,0,0.2025,11.313137,17.859557)" />
    <g
       style="fill:#ebeded;fill-opacity:1"
       id="g3689"
       transform="matrix(0.2025,0,0,0.2025,11.313137,17.859557)" />
    <g
       style="fill:#ebeded;fill-opacity:1"
       id="g3691"
       transform="matrix(0.2025,0,0,0.2025,11.313137,17.859557)" />
    <g
       style="fill:#ebeded;fill-opacity:1"
       id="g3693"
       transform="matrix(0.2025,0,0,0.2025,11.313137,17.859557)" />
    <g
       style="fill:#ebeded;fill-opacity:1"
       id="g3695"
       transform="matrix(0.2025,0,0,0.2025,11.313137,17.859557)" />
    <g
       style="fill:#ebeded;fill-opacity:1"
       id="g3697"
       transform="matrix(0.2025,0,0,0.2025,11.313137,17.859557)" />
    <g
       style="fill:#ebeded;fill-opacity:1"
       id="g3699"
       transform="matrix(0.2025,0,0,0.2025,11.313137,17.859557)" />
    <g
       style="fill:#ebeded;fill-opacity:1"
       id="g3701"
       transform="matrix(0.2025,0,0,0.2025,11.313137,17.859557)" />
    <g
       style="fill:#ebeded;fill-opacity:1"
       id="g3703"
       transform="matrix(0.2025,0,0,0.2025,11.313137,17.859557)" />
    <g
       style="fill:#ebeded;fill-opacity:1"
       id="g3705"
       transform="matrix(0.2025,0,0,0.2025,11.313137,17.859557)" />
    <g
       style="fill:#ebeded;fill-opacity:1"
       id="g3707"
       transform="matrix(0.2025,0,0,0.2025,11.313137,17.859557)" />
    <g
       style="fill:#ebeded;fill-opacity:1"
       id="g3709"
       transform="matrix(0.2025,0,0,0.2025,11.313137,17.859557)" />
    <g
       style="fill:#737370;fill-opacity:1;stroke:none"
       id="g599"
       transform="matrix(0.51884044,0,0,0.51884044,-65.847195,-54.488427)">
      <polygon
         transform="matrix(0.1356032,0.2932032,-0.00416466,0.97115047,323.55068,-54.480993)"
         id="polygon597"
         points="184.642,143.629 340.526,71.579 340.526,274.219 184.642,357.35 "
         style="fill:#737370;fill-opacity:1;stroke:none" />
      <rect
         y="139.58749"
         x="133.37123"
         height="207.25262"
         width="207.25262"
         id="rect1581"
         style="fill:#737370;fill-opacity:1;stroke:none;stroke-width:2.33212352;stroke-opacity:1" />
      <polygon
         transform="matrix(-0.31823348,-0.13560319,-0.97038174,0.00416466,540.83715,157.00748)"
         id="polygon597-3"
         points="340.526,274.219 184.642,357.35 184.642,143.629 340.526,71.579 "
         style="fill:#737370;fill-opacity:1;stroke:none" />
    </g>
    <g
       id="g601"
       transform="matrix(0.3375,0,0,0.3375,136.96358,-2.8188527)" />
    <g
       id="g603"
       transform="matrix(0.3375,0,0,0.3375,136.96358,-2.8188527)" />
    <g
       id="g605"
       transform="matrix(0.3375,0,0,0.3375,136.96358,-2.8188527)" />
    <g
       id="g607"
       transform="matrix(0.3375,0,0,0.3375,136.96358,-2.8188527)" />
    <g
       id="g609"
       transform="matrix(0.3375,0,0,0.3375,136.96358,-2.8188527)" />
    <g
       id="g611"
       transform="matrix(0.3375,0,0,0.3375,136.96358,-2.8188527)" />
    <g
       id="g613"
       transform="matrix(0.3375,0,0,0.3375,136.96358,-2.8188527)" />
    <g
       id="g615"
       transform="matrix(0.3375,0,0,0.3375,136.96358,-2.8188527)" />
    <g
       id="g617"
       transform="matrix(0.3375,0,0,0.3375,136.96358,-2.8188527)" />
    <g
       id="g619"
       transform="matrix(0.3375,0,0,0.3375,136.96358,-2.8188527)" />
    <g
       id="g621"
       transform="matrix(0.3375,0,0,0.3375,136.96358,-2.8188527)" />
    <g
       id="g623"
       transform="matrix(0.3375,0,0,0.3375,136.96358,-2.8188527)" />
    <g
       id="g625"
       transform="matrix(0.3375,0,0,0.3375,136.96358,-2.8188527)" />
    <g
       id="g627"
       transform="matrix(0.3375,0,0,0.3375,136.96358,-2.8188527)" />
    <g
       id="g629"
       transform="matrix(0.3375,0,0,0.3375,136.96358,-2.8188527)" />
    <g
       style="fill:#82d1f5;fill-opacity:1"
       id="g19303"
       transform="matrix(0.22,0,0,0.22,7.4897354,22.484192)">
      <path
         style="fill:#82d1f5;fill-opacity:1"
         id="path19305"
         d="m 413.797,214.6 -89.185,0 c 2.261,-4.659 3.531,-9.885 3.531,-15.402 l 0,-136.283 c 0,-19.521 -15.881,-35.402 -35.401,-35.402 l -136.284,0 c -19.521,0 -35.402,15.881 -35.402,35.402 l 0,136.283 c 0,5.517 1.27,10.743 3.531,15.402 l -89.185,0 C 15.882,214.6 0,230.481 0,250.002 l 0,136.283 c 0,19.521 15.882,35.402 35.402,35.402 l 136.282,0 c 19.521,0 35.402,-15.881 35.402,-35.402 l 0,-136.283 c 0,-5.517 -1.27,-10.743 -3.531,-15.402 l 42.087,0 c -2.261,4.659 -3.531,9.885 -3.531,15.402 l 0,136.283 c 0,19.521 15.882,35.402 35.402,35.402 l 136.282,0 c 19.521,0 35.402,-15.881 35.402,-35.402 l 0,-136.283 c 0.002,-19.521 -15.88,-35.402 -35.4,-35.402 z m -272.741,-15.402 0,-136.283 c 0,-8.493 6.909,-15.402 15.402,-15.402 l 136.283,0 c 8.492,0 15.401,6.909 15.401,15.402 l 0,136.283 c 0,8.493 -6.909,15.402 -15.401,15.402 l -136.283,0 c -8.493,0 -15.402,-6.91 -15.402,-15.402 z m 46.031,50.804 0,136.283 c 0,8.493 -6.909,15.402 -15.402,15.402 l -136.283,0 C 26.909,401.687 20,394.778 20,386.285 L 20,250.002 C 20,241.509 26.909,234.6 35.402,234.6 l 136.282,0 c 8.494,0 15.403,6.909 15.403,15.402 z m 242.112,136.283 c 0,8.493 -6.909,15.402 -15.402,15.402 l -136.282,0 c -8.493,0 -15.402,-6.909 -15.402,-15.402 l 0,-136.283 c 0,-8.493 6.909,-15.402 15.402,-15.402 l 136.282,0 c 8.493,0 15.402,6.909 15.402,15.402 l 0,136.283 z" />
      <path
         style="fill:#82d1f5;fill-opacity:1"
         id="path19307"
         d="m 368.018,313.364 c 3.12,-4.913 4.936,-10.731 4.936,-16.969 0,-17.506 -14.242,-31.749 -31.749,-31.749 l -12.349,0 c -5.522,0 -10,4.477 -10,10 l 0,43.498 0,43.498 c 0,5.523 4.478,10 10,10 l 21.749,0 c 17.507,0 31.749,-14.242 31.749,-31.749 0,-11.081 -5.709,-20.848 -14.336,-26.529 z m -29.162,-28.719 2.349,0 c 6.479,0 11.749,5.271 11.749,11.749 0,6.479 -5.271,11.749 -11.749,11.749 l -2.349,0 0,-23.498 z m 11.749,66.996 -11.749,0 0,-23.498 11.749,0 c 6.479,0 11.749,5.271 11.749,11.749 0,6.478 -5.27,11.749 -11.749,11.749 z" />
      <path
         style="fill:#82d1f5;fill-opacity:1"
         id="path19309"
         d="m 103.543,284.648 c 6.479,0 11.75,5.271 11.75,11.75 0,5.523 4.478,10 10,10 5.522,0 10,-4.477 10,-10 0,-17.507 -14.243,-31.75 -31.75,-31.75 -17.507,0 -31.75,14.243 -31.75,31.75 l 0,43.49 c 0,17.507 14.243,31.75 31.75,31.75 17.507,0 31.75,-14.243 31.75,-31.75 0,-5.523 -4.478,-10 -10,-10 -5.522,0 -10,4.477 -10,10 0,6.479 -5.271,11.75 -11.75,11.75 -6.479,0 -11.75,-5.271 -11.75,-11.75 l 0,-43.49 c 0,-6.479 5.271,-11.75 11.75,-11.75 z" />
      <path
         style="fill:#82d1f5;fill-opacity:1"
         id="path19311"
         d="m 199.597,184.235 c 5.348,1.383 10.802,-1.831 12.186,-7.177 l 3.258,-12.598 19.118,0 3.258,12.598 c 1.166,4.508 5.226,7.499 9.675,7.499 0.828,0 1.671,-0.104 2.511,-0.321 5.347,-1.383 8.561,-6.838 7.178,-12.185 L 234.282,85.055 c -1.142,-4.413 -5.123,-7.496 -9.682,-7.496 -4.559,0 -8.54,3.083 -9.682,7.496 l -22.499,86.996 c -1.383,5.346 1.831,10.802 7.178,12.184 z m 29.389,-39.775 -8.774,0 4.387,-16.963 4.387,16.963 z" />
    </g>
  </g>
  <defs
     id="defs2449" />
</svg>
